<?xml version="1.0" encoding="UTF-8"?>
<svg width="34px" height="34px" viewBox="0 0 34 34" version="1.1" xmlns="http://www.w3.org/2000/svg" xmlns:xlink="http://www.w3.org/1999/xlink">
    <!-- Generator: Sketch 54.1 (76490) - https://sketchapp.com -->
    <title>Shape Copy 5</title>
    <desc>Created with Sketch.</desc>
    <defs>
        <linearGradient x1="50%" y1="0%" x2="50%" y2="156.737419%" id="linearGradient-1">
            <stop stop-color="#718AF4" offset="0%"></stop>
            <stop stop-color="#38277F" offset="99.9727331%"></stop>
            <stop stop-color="#2E1B79" offset="100%"></stop>
        </linearGradient>
    </defs>
    <g id="Page-1" stroke="none" stroke-width="1" fill="none" fill-rule="evenodd">
        <g id="AdminBro---Sidebar-open-Copy-3" transform="translate(-40.000000, -14.000000)" fill="url(#linearGradient-1)">
            <g id="Group-4" transform="translate(40.000000, 14.000000)">
                <path d="M7.56882489,33.5940546 C3.38867833,33.5940546 1.0658141e-12,30.16425 1.0658141e-12,25.9333717 C1.0658141e-12,25.9001588 0.000208825422,25.8669952 0.000625219839,25.8338823 L1.0658141e-12,10.996922 C1.0658141e-12,10.0030853 0.524143212,9.08467544 1.37513674,8.58739124 L15.4315258,0.373439056 C16.2836052,-0.124479685 17.3337729,-0.124479685 18.1858523,0.373439056 L32.2422414,8.58739124 C33.0932349,9.08467544 33.6173781,10.0030853 33.6173781,10.996922 L33.6173781,25.8338823 C33.6171693,25.8669952 33.6173781,25.9001588 33.6173781,25.9333717 C33.6173781,30.16425 30.2286998,33.5940546 26.0485532,33.5940546 C23.0309156,33.5940546 20.4257407,31.8066597 19.2101167,29.2208164 L14.4072621,29.2208163 C13.1916374,31.8066597 10.5864625,33.5940546 7.56882489,33.5940546 Z M19.8573984,25.164418 L23.1307548,27.0197444 C23.1718386,27.0430306 23.2169104,27.0582252 23.2635845,27.0645239 C23.4675918,27.092055 23.6550232,26.9469856 23.6822242,26.7405024 L23.9396236,24.7865775 C23.9668727,24.5797296 23.9082474,24.370698 23.7776888,24.2091897 L20.8908179,20.63797 C20.9636959,19.9499343 21.0010799,19.2511483 21.0010799,18.5435249 C21.0010799,14.3255593 19.6728071,10.4215937 17.4165271,7.23675147 C17.3779659,7.18232052 17.3331042,7.12032666 17.2819421,7.0507699 C17.2476455,7.00414243 17.2067931,6.9628339 17.1606803,6.92815408 C16.8993201,6.73159438 16.5298587,6.78648654 16.3354669,7.05076036 C16.2836001,7.12127186 16.2381642,7.18406494 16.1991594,7.23913961 C13.9439072,10.4235451 12.6162982,14.3266135 12.6162982,18.5435249 C12.6162982,19.2511483 12.6536821,19.9499343 12.7265602,20.63797 L9.83968927,24.2091897 C9.70913069,24.370698 9.65050545,24.5797296 9.67775446,24.7865775 L9.93515389,26.7405024 C9.96235487,26.9469856 10.1497863,27.092055 10.3537936,27.0645239 C10.4004677,27.0582252 10.4455395,27.0430306 10.4866233,27.0197444 L13.7599797,25.164418 C13.9392977,25.6650603 14.1383714,26.1561193 14.3562471,26.6366301 L19.261131,26.6366301 C19.4790067,26.1561193 19.6780804,25.6650603 19.8573984,25.164418 Z M16.808689,16.7301661 C15.8310784,16.7301661 15.0385684,15.9280379 15.0385684,14.9385627 C15.0385684,13.9490874 15.8310784,13.1469592 16.808689,13.1469592 C17.7862997,13.1469592 18.5788096,13.9490874 18.5788096,14.9385627 C18.5788096,15.9280379 17.7862997,16.7301661 16.808689,16.7301661 Z" id="Shape-Copy-5"></path>
            </g>
        </g>
    </g>
</svg>