<svg xmlns="http://www.w3.org/2000/svg" width="187" height="48" viewBox="0 0 187 48">
  <defs>
      <linearGradient id="a" x1="50%" x2="50%" y1="0%" y2="156.737%">
          <stop offset="0%" stop-color="#718AF4"/>
          <stop offset="99.973%" stop-color="#38277F"/>
          <stop offset="100%" stop-color="#2E1B79"/>
      </linearGradient>
  </defs>
  <g fill="none" fill-rule="evenodd">
      <path fill="url(#a)" d="M10.804 47.427C4.837 47.427 0 42.585 0 36.612V15.525c0-1.403.748-2.7 1.963-3.402L22.028.527a3.929 3.929 0 0 1 3.932 0l20.065 11.596a3.929 3.929 0 0 1 1.963 3.402V36.611c0 5.974-4.837 10.816-10.804 10.816a10.805 10.805 0 0 1-9.762-6.174h-6.856a10.805 10.805 0 0 1-9.762 6.174zm17.542-11.9l4.673 2.619a.532.532 0 0 0 .787-.395l.367-2.758a1.066 1.066 0 0 0-.23-.815l-4.122-5.042a27.76 27.76 0 0 0 .158-2.957 27.317 27.317 0 0 0-5.31-16.225.842.842 0 0 0-1.35 0c-.074.1-.14.188-.195.266a27.317 27.317 0 0 0-5.114 15.96c0 .998.053 1.985.157 2.956l-4.121 5.042c-.186.228-.27.523-.231.815l.367 2.758a.532.532 0 0 0 .787.395l4.673-2.62c.256.707.54 1.4.851 2.079h7.002a27.26 27.26 0 0 0 .851-2.079zm-4.352-11.908a2.528 2.528 0 0 1-2.527-2.53 2.528 2.528 0 0 1 2.527-2.529 2.528 2.528 0 0 1 2.527 2.53 2.528 2.528 0 0 1-2.527 2.53z"/>
      <path fill="#454655" fill-rule="nonzero" d="M76.66 34l-.925-2.15h-6.75L68.06 34h-3.625l7.375-16.8h1.125l7.35 16.8H76.66zm-2.1-4.925l-2.2-5.575-2.2 5.575h4.4zM92.016 15.25h3.375V34h-3.1v-1.525c-.825 1.175-2.275 1.825-3.975 1.825-3.45 0-6-2.75-6-6.475 0-3.725 2.55-6.475 6-6.475 1.575 0 2.8.5 3.7 1.475V15.25zm.05 12.575c0-2.2-1.425-3.425-3.125-3.425-1.8 0-3.2 1.375-3.2 3.4 0 2.075 1.375 3.425 3.2 3.425 1.7 0 3.125-1.175 3.125-3.4zm26.905-1.5V34h-3.375v-7.2c0-1.475-.875-2.4-2.2-2.4-1.325 0-2.275.95-2.275 2.325V34h-3.375v-7.2c0-1.475-.875-2.4-2.2-2.4-1.375 0-2.275.925-2.275 2.4V34h-3.375V21.625h3.1v1.1c.825-.875 2.075-1.375 3.5-1.375 1.625 0 2.85.6 3.675 1.775.975-1.1 2.425-1.775 4.125-1.775 2.9 0 4.675 1.975 4.675 4.975zm4.38 7.675V21.625h3.376V34h-3.375zm-.474-16.875c0-1.2.95-2.1 2.15-2.1s2.175.9 2.175 2.1c0 1.175-.975 2.075-2.175 2.075-1.2 0-2.15-.9-2.15-2.075zm19.73 9.2V34h-3.35v-7.225c0-1.425-.925-2.4-2.3-2.4-1.375 0-2.35.975-2.35 2.4V34h-3.375V21.625h3.1v1.125c.875-.875 2.15-1.4 3.625-1.4 2.875 0 4.65 1.975 4.65 4.975zm17.405 2.825c0 2.85-2.25 4.85-5.425 4.85h-7.35V17.5h5.85c3.05 0 5.225 1.9 5.225 4.6 0 1.2-.4 2.2-1.225 2.975 1.825.675 2.925 2.075 2.925 4.075zm-7.2-8.75h-2.325v3.775h2.325c1.375 0 2.15-.725 2.15-1.9 0-1.175-.775-1.875-2.15-1.875zm3.875 8.625c0-1.275-.875-2.075-2.35-2.075h-3.85v4.15h3.85c1.475 0 2.35-.775 2.35-2.075zm14.606-7.4V24.6h-.9c-2.025 0-3.325 1.1-3.325 3.225V34h-3.375V21.625h3.1V23.1a4.291 4.291 0 0 1 3.4-1.625c.425 0 .775.05 1.1.15zm2.26 6.175c-.074-3.525 3-6.525 6.626-6.45 3.625-.05 6.725 2.925 6.65 6.45.075 3.525-3.05 6.55-6.675 6.475-3.625.075-6.675-2.95-6.6-6.475zm9.826.025c0-1.925-1.375-3.4-3.2-3.4-1.875 0-3.2 1.425-3.2 3.4 0 1.925 1.325 3.35 3.2 3.35 1.825 0 3.2-1.425 3.2-3.35z"/>
  </g>
</svg>
