<?xml version="1.0" encoding="UTF-8"?>
<svg width="154" height="29" xmlns="http://www.w3.org/2000/svg">
  <title>Atoms/Logotype/AdminJS</title>
  <g fill-rule="evenodd">
    <path
      d="M46.398 28.546c2.666 0 4.115-1.884 4.492-2.753h.058s-.087.405-.058 1.014l.087 1.333h3.912v-9.129c0-3.622-2.231-5.767-6.694-5.767-2.55 0-4.492.609-5.303.986v3.883c.956-.609 2.782-1.246 4.607-1.246 1.913 0 3.101.637 3.101 2.376v.348c-5.216-.725-8.81 1.014-8.81 4.55 0 2.956 2.116 4.405 4.608 4.405zm1.13-3.304c-1.014 0-1.651-.609-1.651-1.536 0-1.362 1.362-2.376 4.607-1.855 0 1.855-1.275 3.391-2.956 3.391zm16.606 3.304c2.116 0 4.028-1.246 4.695-2.695h.058s-.087.376-.058.956l.087 1.333h3.941V7.274h-4.318v6.898c0 .664.058 1.036.08 1.15l.007.037h-.058c-.783-1.13-2.434-2.115-4.55-2.115-3.622 0-6.636 2.87-6.636 7.651 0 4.753 3.014 7.65 6.752 7.65zm.782-3.652c-2 0-3.448-1.623-3.448-3.999 0-2.405 1.449-4 3.448-4 1.74 0 3.478 1.334 3.478 4s-1.739 4-3.478 4zM80.29 28.14v-6.347c0-2.376.696-4.607 3.13-4.607 1.449 0 1.855 1.13 1.855 2.492v8.462h4.318v-6.347c0-2.347.637-4.607 3.1-4.607 1.392 0 1.884 1.1 1.884 2.52v8.434h4.347v-9.07c0-3.855-1.796-5.826-5.013-5.826-2 0-3.739 1.217-4.84 2.898-.58-1.652-1.913-2.55-3.564-2.782a4.669 4.669 0 0 0-1.42.03c-1.884.202-3.507 1.42-4.116 2.926h-.058c.03-.145.145-.492.116-1.014l-.116-1.652h-3.97v14.49h4.347zm24.546-16.316c1.45 0 2.406-.927 2.406-2.318 0-1.45-.957-2.348-2.406-2.348-1.478 0-2.405.899-2.405 2.348 0 1.39.927 2.318 2.405 2.318zm2.174 16.316V13.65h-4.347v14.49h4.347zm8.404 0v-7.216c0-2.174 1.362-3.738 3.39-3.738 1.566 0 1.971 1.188 1.971 2.608v8.346h4.347v-9.07c0-3.826-1.768-5.826-5.042-5.826-2.464 0-4.376 1.74-4.985 3.072h-.058c.03-.145.145-.492.116-1.014l-.116-1.652h-3.97v14.49h4.347zm14.809.406c3.941 0 6.114-1.884 6.114-6.347V7.274h-4.462v15.128c0 1.565-.84 2.347-2.377 2.347-.84 0-1.71-.26-2.173-.521v3.767c.521.26 1.594.55 2.898.55zm15.91 0c4.926 0 7.766-2.26 7.766-6.028 0-3.507-2.26-5.043-5.912-6.463-2.84-1.072-3.97-1.912-3.97-3.13 0-1.333 1.391-2.173 3.536-2.173 1.912 0 3.883.55 5.1 1.275V7.912c-1.304-.58-3.361-1.043-5.448-1.043-4.492 0-7.564 2.376-7.564 6.085 0 3.623 2.145 5.159 5.796 6.492 2.87 1.043 4.115 1.768 4.115 3.159 0 1.014-.927 1.623-2.52 1.855-.552.115-1.19.144-1.856.115-1.883-.115-3.796-.753-5.245-1.506v4.289c1.507.666 3.825 1.188 6.202 1.188z"
      fill-rule="nonzero" class="text" fill="#0b151e" />
    <path
      d="M16.275 0 32.55 28.35h-8.64l-1.999-3.483a3.52 3.52 0 0 0-2.831-1.76l-.222-.007h-5.166a3.52 3.52 0 0 0-3.053 1.767L8.638 28.35H0L16.275 0zm0 12.6c-1.912 0-3.463 1.567-3.463 3.5s1.55 3.5 3.463 3.5c1.912 0 3.463-1.567 3.463-3.5s-1.55-3.5-3.463-3.5z"
      class="letter" fill="#4d70eb" />
  </g>
</svg>
