<?xml version="1.0" encoding="UTF-8"?>
<svg width="141px" height="36px" viewBox="0 0 141 36" version="1.1" xmlns="http://www.w3.org/2000/svg" xmlns:xlink="http://www.w3.org/1999/xlink">
    <!-- Generator: Sketch 63.1 (92452) - https://sketch.com -->
    <title>Atoms/Logotype/AdminBro</title>
    <desc>Created with Sketch.</desc>
    <defs>
        <linearGradient x1="50%" y1="0%" x2="50%" y2="156.737419%" id="linearGradient-1">
            <stop stop-color="#879FFA" offset="0%"></stop>
            <stop stop-color="#4268F6" offset="99.9727331%"></stop>
            <stop stop-color="#343F87" offset="100%"></stop>
        </linearGradient>
    </defs>
    <g id="Atoms/Logotype/AdminBro" stroke="none" stroke-width="1" fill="none" fill-rule="evenodd">
        <path d="M58.189121,25.7821012 L57.4938297,24.2204929 L52.4200819,24.2204929 L51.7247905,25.7821012 L49,25.7821012 L54.5435393,13.5797665 L55.3891639,13.5797665 L60.9139115,25.7821012 L58.189121,25.7821012 Z M56.6106217,22.2049287 L54.9569558,18.155642 L53.3032898,22.2049287 L56.6106217,22.2049287 Z M69.7312623,12.1634241 L72.2681362,12.1634241 L72.2681362,25.7821012 L69.9379706,25.7821012 L69.9379706,24.6744488 C69.3178459,25.5278859 68.2279297,26 66.9500969,26 C64.356848,26 62.4400988,24.002594 62.4400988,21.2970169 C62.4400988,18.5914397 64.356848,16.5940337 66.9500969,16.5940337 C68.1339714,16.5940337 69.0547626,16.9571984 69.7312623,17.6653696 L69.7312623,12.1634241 Z M69.7688457,21.2970169 C69.7688457,19.6990921 68.6977211,18.8093385 67.4198883,18.8093385 C66.0668889,18.8093385 65.014556,19.8080415 65.014556,21.2788586 C65.014556,22.7859922 66.0480973,23.766537 67.4198883,23.766537 C68.6977211,23.766537 69.7688457,22.9130999 69.7688457,21.2970169 Z M89.9927332,20.2075227 L89.9927332,25.7821012 L87.4558593,25.7821012 L87.4558593,20.5525292 C87.4558593,19.4811933 86.7981513,18.8093385 85.8021934,18.8093385 C84.8062355,18.8093385 84.0921524,19.4993515 84.0921524,20.4980545 L84.0921524,25.7821012 L81.5552785,25.7821012 L81.5552785,20.5525292 C81.5552785,19.4811933 80.8975705,18.8093385 79.9016126,18.8093385 C78.8680714,18.8093385 78.1915717,19.4811933 78.1915717,20.5525292 L78.1915717,25.7821012 L75.6546978,25.7821012 L75.6546978,16.7937743 L77.9848634,16.7937743 L77.9848634,17.5927367 C78.6049881,16.9571984 79.5445711,16.5940337 80.6156956,16.5940337 C81.8371534,16.5940337 82.7579447,17.0298314 83.3780694,17.8832685 C84.1109441,17.0843061 85.2008603,16.5940337 86.4786931,16.5940337 C88.6585255,16.5940337 89.9927332,18.0285344 89.9927332,20.2075227 Z M93.2853364,25.7821012 L93.2853364,16.7937743 L95.8222103,16.7937743 L95.8222103,25.7821012 L93.2853364,25.7821012 Z M92.9282949,13.5252918 C92.9282949,12.6536965 93.6423779,12 94.5443776,12 C95.4463772,12 96.1792519,12.6536965 96.1792519,13.5252918 C96.1792519,14.3787289 95.4463772,15.0324254 94.5443776,15.0324254 C93.6423779,15.0324254 92.9282949,14.3787289 92.9282949,13.5252918 Z M107.758976,20.2075227 L107.758976,25.7821012 L105.240894,25.7821012 L105.240894,20.5343709 C105.240894,19.4993515 104.545603,18.7911803 103.512062,18.7911803 C102.47852,18.7911803 101.745646,19.4993515 101.745646,20.5343709 L101.745646,25.7821012 L99.2087718,25.7821012 L99.2087718,16.7937743 L101.538938,16.7937743 L101.538938,17.6108949 C102.196646,16.9753567 103.15502,16.5940337 104.263728,16.5940337 C106.424769,16.5940337 107.758976,18.0285344 107.758976,20.2075227 Z M120.842034,22.2594034 C120.842034,24.3294423 119.150785,25.7821012 116.764244,25.7821012 L111.239496,25.7821012 L111.239496,13.7976654 L115.636744,13.7976654 C117.929327,13.7976654 119.564201,15.1776913 119.564201,17.1387808 C119.564201,18.0103761 119.263534,18.7367056 118.64341,19.2996109 C120.015201,19.7898833 120.842034,20.8067445 120.842034,22.2594034 Z M115.430036,15.9040208 L113.682412,15.9040208 L113.682412,18.6459144 L115.430036,18.6459144 C116.463577,18.6459144 117.046119,18.1193256 117.046119,17.2658885 C117.046119,16.4124514 116.463577,15.9040208 115.430036,15.9040208 Z M118.342743,22.1686122 C118.342743,21.2425422 117.685035,20.6614786 116.576327,20.6614786 L113.682412,20.6614786 L113.682412,23.6757458 L116.576327,23.6757458 C117.685035,23.6757458 118.342743,23.1128405 118.342743,22.1686122 Z M129.321135,16.7937743 L129.321135,18.9546044 L128.644635,18.9546044 C127.122511,18.9546044 126.145344,19.7535668 126.145344,21.2970169 L126.145344,25.7821012 L123.608471,25.7821012 L123.608471,16.7937743 L125.938636,16.7937743 L125.938636,17.8651102 C126.558761,17.1206226 127.460761,16.6848249 128.494302,16.6848249 C128.81376,16.6848249 129.076843,16.7211414 129.321135,16.7937743 Z M131.020627,21.2788586 C130.964252,18.7185473 133.275626,16.539559 136.000417,16.5940337 C138.725207,16.5577173 141.055373,18.7185473 140.998998,21.2788586 C141.055373,23.8391699 138.706416,26.0363165 135.981625,25.9818418 C133.256835,26.0363165 130.964252,23.8391699 131.020627,21.2788586 Z M138.405749,21.2970169 C138.405749,19.8988327 137.372208,18.8274968 136.000417,18.8274968 C134.591042,18.8274968 133.595084,19.8625162 133.595084,21.2970169 C133.595084,22.695201 134.591042,23.7302205 136.000417,23.7302205 C137.372208,23.7302205 138.405749,22.695201 138.405749,21.2970169 Z" id="AdminBro" fill="#535369" fill-rule="nonzero"></path>
        <path d="M8.10526316,36 C3.62884992,36 0,32.324559 0,27.7906729 C0,27.7550813 0,27.7195426 0.000669532112,27.6840582 L0,11.7845016 C0,10.7194882 0.56129171,9.73530346 1.47259916,9.20240467 L16.5252307,0.400184085 C17.437701,-0.133394695 18.562299,-0.133394695 19.4747693,0.400184085 L34.5274008,9.20240467 C35.4387083,9.73530346 36,10.7194882 36,11.7845016 L36,27.6840582 C36,27.7195426 36,27.7550813 36,27.7906729 C36,32.324559 32.3711501,36 27.8947368,36 C24.6632251,36 21.8734091,34.0845951 20.5716281,31.3135585 L15.4283726,31.3135583 C14.1265909,34.0845951 11.3367749,36 8.10526316,36 Z M21.2647858,26.9666481 L24.7701403,28.9548497 C24.8141359,28.9798035 24.8624022,28.9960863 24.9123843,29.0028362 C25.1308506,29.032339 25.3315661,28.87688 25.360695,28.6556088 L25.6363375,26.5617474 C25.6655178,26.3400854 25.6027375,26.1160833 25.4629256,25.9430081 L22.3714485,22.1160241 C22.4494918,21.3787126 22.4895254,20.6298808 22.4895254,19.8715786 C22.4895254,15.35153 21.0671115,11.1679693 18.6509184,7.75503452 C18.6096242,7.69670532 18.5615829,7.63027158 18.5067947,7.55573329 C18.4700673,7.50576644 18.4263196,7.46149947 18.3769385,7.42433594 C18.0970545,7.213699 17.7014077,7.27252243 17.4932384,7.55572307 C17.4376955,7.63128447 17.3890394,7.69857468 17.3472701,7.75759369 C14.9321775,11.1700606 13.5104746,15.3526597 13.5104746,19.8715786 C13.5104746,20.6298808 13.5505082,21.3787126 13.6285515,22.1160241 L10.5370744,25.9430081 C10.3972625,26.1160833 10.3344822,26.3400854 10.3636625,26.5617474 L10.639305,28.6556088 C10.6684339,28.87688 10.8691494,29.032339 11.0876157,29.0028362 C11.1375978,28.9960863 11.1858641,28.9798035 11.2298597,28.9548497 L14.7352142,26.9666481 C14.9272414,27.5031455 15.1404243,28.0293733 15.373742,28.5442974 L20.626258,28.5442974 C20.8595757,28.0293733 21.0727586,27.5031455 21.2647858,26.9666481 Z M18,17.9283503 C16.9531015,17.9283503 16.1044226,17.0687752 16.1044226,16.0084355 C16.1044226,14.9480958 16.9531015,14.0885207 18,14.0885207 C19.0468985,14.0885207 19.8955774,14.9480958 19.8955774,16.0084355 C19.8955774,17.0687752 19.0468985,17.9283503 18,17.9283503 Z" id="Shape-Copy-5" fill="url(#linearGradient-1)"></path>
    </g>
</svg>