<?xml version="1.0" standalone="no"?>
<!DOCTYPE svg PUBLIC "-//W3C//DTD SVG 1.1//EN" "http://www.w3.org/Graphics/SVG/1.1/DTD/svg11.dtd" >
<svg xmlns="http://www.w3.org/2000/svg">
<metadata>Generated by IcoMoon</metadata>
<defs>
<font id="icomoon" horiz-adv-x="1024">
<font-face units-per-em="1024" ascent="960" descent="-64" />
<missing-glyph horiz-adv-x="1024" />
<glyph unicode="&#x20;" horiz-adv-x="512" d="" />
<glyph unicode="&#xe900;" glyph-name="calendar" d="M228.414 386.856v63.681h63.010v-63.681h-63.010zM165.42 323.191h189.030v191.011h-189.030v-191.011zM228.414 132.116v63.713h63.010v-63.713h-63.010zM165.42 68.451h189.030v191.059h-189.030v-191.059zM480.454 386.856v63.681h63.010v-63.681h-63.010zM417.444 323.191h189.030v191.011h-189.030v-191.011zM480.454 132.116v63.713h63.010v-63.713h-63.010zM417.444 68.451h189.030v191.059h-189.030v-191.059zM732.492 386.856v63.681h63.010v-63.681h-63.010zM669.483 323.191h189.030v191.011h-189.030v-191.011zM732.492 132.116v63.713h63.010v-63.713h-63.010zM669.483 68.451h189.030v191.059h-189.030v-191.059zM921.522 641.563h-819.128v-604.953c0-17.592 14.114-31.84 31.52-31.84h756.103c17.406 0 31.505 14.249 31.505 31.84v604.953zM921.522 800.766c0 17.608-14.098 31.856-31.505 31.856h-157.525v-63.713h-63.010v63.713h-315.049v-63.713h-63.010v63.713h-157.509c-17.406 0-31.52-14.249-31.52-31.856v-95.521h819.128v95.521zM102.394-58.911c-34.797 0-63.010 28.497-63.010 63.681v827.852c0 35.168 28.213 63.681 63.010 63.681h189.030v63.697h63.010v-63.697h315.049v63.697h63.010v-63.697h196.985c34.797 0 55.055-28.513 55.055-63.681v-827.852c0-35.184-28.213-63.681-63.010-63.681h-819.128z" />
<glyph unicode="&#xe901;" glyph-name="close" d="M501.463 549.046l392.209 392.209c24.993 24.994 65.516 24.994 90.51 0s24.993-65.516 0-90.51l-392.209-392.209 392.209-392.209c24.993-24.994 24.993-65.516 0-90.51s-65.516-24.994-90.51 0l-392.209 392.209-392.208-392.209c-24.993-24.994-65.516-24.994-90.51 0s-24.993 65.516 0 90.51l392.208 392.209-392.208 392.209c-24.993 24.994-24.993 65.516 0 90.51s65.516 24.994 90.51 0l392.208-392.209z" />
<glyph unicode="&#xe902;" glyph-name="collections" d="M368 736h480c79.529 0 144-64.471 144-144v-480c0-79.529-64.471-144-144-144h-480c-79.529 0-144 64.471-144 144v480c0 79.529 64.471 144 144 144zM128 208c0-26.51-21.49-48-48-48s-48 21.49-48 48v432c0 159.058 128.942 288 288 288h432c26.51 0 48-21.49 48-48s-21.49-48-48-48h-432c-106.039 0-192-85.961-192-192v-432z" />
<glyph unicode="&#xe903;" glyph-name="dropdown-open" d="M853.042 183.087l-361.227 361.227-361.227-361.227c-24.994-24.994-65.516-24.994-90.51 0s-24.994 65.516 0 90.51l451.736 451.736 451.736-451.736c24.994-24.994 24.994-65.516 0-90.51s-65.516-24.994-90.51 0z" />
<glyph unicode="&#xe904;" glyph-name="dropdown-close" d="M853.042 706.588c24.994 24.994 65.516 24.994 90.51 0s24.994-65.516 0-90.51l-451.736-451.736-451.736 451.736c-24.994 24.994-24.994 65.516 0 90.51s65.516 24.994 90.51 0l361.227-361.227 361.227 361.227z" />
<glyph unicode="&#xe905;" glyph-name="edit" d="M808.944 939.252c-26.849 26.861-70.385 26.861-97.23 0l-569.249-569.501c0 0-34.197-34.417-111.408-283.504-0.541-1.741-1.079-3.471-1.624-5.236-1.377-4.462-2.768-8.997-4.172-13.592-1.243-4.062-2.501-8.208-3.764-12.381-1.064-3.517-2.12-6.996-3.199-10.59-2.448-8.155-4.927-16.454-7.455-25.024-5.548-18.813-19.101-61.236-3.775-76.593 14.757-14.793 57.656-1.78 76.429 3.784 8.511 2.523 16.759 4.996 24.859 7.438 3.741 1.128 7.367 2.233 11.024 3.346 3.931 1.197 7.844 2.385 11.676 3.563 4.839 1.486 9.609 2.953 14.3 4.409 1.399 0.434 2.772 0.865 4.16 1.296 237.154 73.792 279.729 108.423 283.268 111.589 0.194 0.175 0.297 0.267 0.297 0.267l10.978 10.997 0.736-0.735 558.618 558.672c26.849 26.857 26.849 70.404 0 97.265l-194.468 194.531zM393.925 122.504c-0.297-0.202-0.702-0.465-1.129-0.735-0.236-0.152-0.522-0.332-0.805-0.507-0.286-0.179-0.599-0.373-0.93-0.575-0.294-0.179-0.599-0.362-0.927-0.56-11.322-6.771-44.546-24.243-125.182-53.413-9.423-3.407-19.684-7.019-30.434-10.742l-114.626 114.665c3.737 10.822 7.356 21.153 10.776 30.641 29.126 80.918 46.594 114.219 53.332 125.517 0.164 0.271 0.313 0.518 0.461 0.762 0.236 0.389 0.458 0.751 0.664 1.082 0.164 0.263 0.336 0.537 0.48 0.762 0.271 0.423 0.534 0.827 0.736 1.128l8.389 8.406 207.765-207.837-8.572-8.593z" />
<glyph unicode="&#xe906;" glyph-name="eye" d="M698.837 681.671c25.668-36.84 40.718-81.629 40.718-129.933 0-125.675-101.88-227.556-227.556-227.556s-227.556 101.88-227.556 227.556c0 48.304 15.051 93.093 40.718 129.933-100.139-41.852-184.426-116.702-237.763-213.611 84.201-152.986 245.537-250.998 424.6-250.998s340.399 98.012 424.6 250.998c-53.337 96.909-137.624 171.759-237.763 213.611zM512 779.294c217.272 0 404.83-127.221 492.245-311.234-87.415-184.013-274.973-311.234-492.245-311.234s-404.83 127.221-492.245 311.234c87.415 184.013 274.973 311.234 492.245 311.234zM512 695.634c-79.471 0-143.895-64.424-143.895-143.895 0-16.634 13.484-30.118 30.118-30.118s30.118 13.484 30.118 30.118c0 46.204 37.456 83.66 83.66 83.66 16.634 0 30.118 13.484 30.118 30.118s-13.484 30.118-30.118 30.118z" />
<glyph unicode="&#xe907;" glyph-name="export" d="M536.435 240.709c-0.342-0.358-0.887-0.205-1.246-0.529-5.837-5.478-13.534-8.858-22.085-9.131-0.085 0-0.154 0-0.222-0.034-9.165-0.273-18.346 2.679-25.344 9.694l-204.61 238.693c-13.449 13.431-13.449 35.277 0 48.742 13.466 13.431 35.259 13.431 48.708 0l146.209-170.614v521.809c0 18.824 15.292 34.116 34.133 34.116 18.859 0 34.15-15.292 34.15-34.116v-521.809l146.21 170.614c13.448 13.431 35.259 13.431 48.708 0 13.448-13.466 13.448-35.311 0-48.742l-204.611-238.693zM989.859 26.029h-955.726c-18.858 0-34.133 15.24-34.133 34.133v273.047c0 18.824 15.274 34.133 34.133 34.133 18.842 0 34.134-15.309 34.134-34.133v-238.914h887.46v238.914c0 18.824 15.291 34.133 34.133 34.133s34.133-15.309 34.133-34.133v-273.047c0-18.893-15.291-34.133-34.133-34.133v0z" />
<glyph unicode="&#xe908;" glyph-name="filter-down" d="M58.564 732.444h965.436l-482.718-482.718z" />
<glyph unicode="&#xe909;" glyph-name="general" d="M176 832c-26.51 0-48-21.49-48-48v-144c0-26.51 21.49-48 48-48h144c26.51 0 48 21.49 48 48v144c0 26.51-21.49 48-48 48h-144zM176 928h144c79.529 0 144-64.471 144-144v-144c0-79.529-64.471-144-144-144h-144c-79.529 0-144 64.471-144 144v144c0 79.529 64.471 144 144 144zM704 928h144c79.529 0 144-64.471 144-144v-144c0-79.529-64.471-144-144-144h-144c-79.529 0-144 64.471-144 144v144c0 79.529 64.471 144 144 144zM176 400h144c79.529 0 144-64.471 144-144v-144c0-79.529-64.471-144-144-144h-144c-79.529 0-144 64.471-144 144v144c0 79.529 64.471 144 144 144zM704 400h144c79.529 0 144-64.471 144-144v-144c0-79.529-64.471-144-144-144h-144c-79.529 0-144 64.471-144 144v144c0 79.529 64.471 144 144 144z" />
<glyph unicode="&#xe90a;" glyph-name="info" d="M512-64c-282.77 0-512 229.23-512 512s229.23 512 512 512c282.77 0 512-229.23 512-512s-229.23-512-512-512zM630.419 195.19c-5.238-2.425-13.683-5.195-25.263-8.349-11.612-3.154-22.063-4.76-31.248-4.76-19.564 0-33.338 3.161-41.335 9.514-7.938 6.353-11.898 18.304-11.898 35.808 0 6.935 1.194 17.274 3.693 30.805 2.421 13.621 5.206 25.726 8.302 36.314l37.778 131.826c3.7 12.098 6.238 25.399 7.601 39.916 1.396 14.485 2.045 24.619 2.045 30.37 0 27.798-9.886 50.357-29.664 67.759-19.778 17.389-47.943 26.084-84.441 26.084-20.31 0-41.783-3.557-64.508-10.665-22.725-7.089-46.482-15.63-71.336-25.604l-10.145-40.805c7.406 2.7 16.228 5.604 26.548 8.611 10.275 2.994 20.356 4.542 30.164 4.542 20.025 0 33.513-3.365 40.582-9.993 7.069-6.647 10.619-18.47 10.619-35.373 0-9.347-1.123-19.731-3.453-31.016-2.298-11.356-5.167-23.365-8.542-36.039l-37.94-132.357c-3.375-13.909-5.842-26.352-7.393-37.401-1.538-11.036-2.278-21.868-2.278-32.398 0-27.203 10.197-49.628 30.586-67.324 20.388-17.626 48.975-26.5 85.727-26.5 23.932 0 44.937 3.084 63.015 9.283 18.058 6.18 42.308 15.169 72.667 26.979l10.119 40.773zM640 748.637c0 22.917-8.769 42.571-26.431 58.904-17.604 16.289-38.823 24.459-63.631 24.459-24.887 0-46.19-8.151-63.962-24.459-17.772-16.334-26.678-35.981-26.678-58.904 0-22.968 8.906-42.577 26.678-58.713 17.805-16.186 39.069-24.286 63.962-24.286 24.815 0 46.028 8.1 63.631 24.286 17.649 16.129 26.431 35.744 26.431 58.713z" />
<glyph unicode="&#xe90b;" glyph-name="moon" d="M509.851-64c-117.023 0-229.57 40.022-321.547 115.225-105.781 86.499-171.688 209.176-185.57 345.431-12.633 123.932 18.602 249.032 91.875 349.4 130.086 178.175 371.078 213.945 371.078 213.945l-44.906-59.389c-48.125-69.728-69.883-154.658-61.273-239.141 18.672-183.25 173.25-320.18 352.891-320.188 12.039 0 24.18 0.612 36.406 1.875 84.141 8.644 162.57 47.238 220.828 108.675l54.367 57.326-2.797-79.11c-4.336-122.598-52.727-239.878-136.258-330.228-84.313-91.205-198.727-148.422-322.156-161.098-17.711-1.82-35.375-2.722-52.938-2.722z" />
<glyph unicode="&#xe90c;" glyph-name="notifications" horiz-adv-x="922" d="M368.231 850.923c3.237 48.999 44.154 87.744 94.154 87.744 50.384 0 91.545-39.343 94.222-88.875 109.197-39.119 187.285-143.212 187.285-265.475 0-75.74 21.207-149.979 61.237-214.369l71.451-114.933c18.794-30.231 12.519-68.88-13.137-91.835-43.151-44.635-207.042-77.846-402.632-77.846-195.485 0-359.305 33.176-402.562 77.774-18.131 16.24-27.626 41.2-22.917 66.847 1.631 8.881 4.916 17.378 9.686 25.054l71.545 115.125c39.984 64.338 61.166 138.511 61.166 214.183 0 123.462 79.625 228.395 190.503 266.606zM332.8 42.388c33.604-3.048 68.865-4.637 105.154-4.637 37.38 0 73.67 1.686 108.179 4.916-20.317-50.772-60.488-85.333-106.723-85.333-46.15 0-86.258 34.435-106.611 85.055z" />
<glyph unicode="&#xe90d;" glyph-name="options" d="M222.609 448c0-61.472-49.833-111.304-111.304-111.304s-111.304 49.833-111.304 111.304c0 61.472 49.833 111.304 111.304 111.304s111.304-49.833 111.304-111.304zM623.304 448c0-61.472-49.833-111.304-111.304-111.304s-111.304 49.833-111.304 111.304c0 61.472 49.833 111.304 111.304 111.304s111.304-49.833 111.304-111.304zM1024 448c0-61.472-49.833-111.304-111.304-111.304s-111.304 49.833-111.304 111.304c0 61.472 49.833 111.304 111.304 111.304s111.304-49.833 111.304-111.304z" />
<glyph unicode="&#xe90e;" glyph-name="pagination-left" d="M754.802 64.219c18.745-18.745 18.745-49.137 0-67.882s-49.137-18.745-67.882 0l-466.802 466.802 466.802 466.802c18.745 18.745 49.137 18.745 67.882 0s18.745-49.137 0-67.882l-398.92-398.92 398.92-398.92z" />
<glyph unicode="&#xe90f;" glyph-name="pagination-right" d="M266.176 64.219c-18.745-18.745-18.745-49.137 0-67.882s49.137-18.745 67.882 0l466.803 466.802-466.803 466.802c-18.745 18.745-49.137 18.745-67.882 0s-18.745-49.137 0-67.882l398.92-398.92-398.92-398.92z" />
<glyph unicode="&#xe910;" glyph-name="add" d="M521.728 513.024h437.248c20.642 0 37.376-16.734 37.376-37.376s-16.734-37.376-37.376-37.376h-437.248v-437.248c0-20.642-16.734-37.376-37.376-37.376s-37.376 16.734-37.376 37.376v437.248h-409.6c-20.642 0-37.376 16.734-37.376 37.376s16.734 37.376 37.376 37.376h409.6v409.6c0 20.642 16.734 37.376 37.376 37.376s37.376-16.734 37.376-37.376v-409.6z" />
<glyph unicode="&#xe911;" glyph-name="profile" d="M480.003 460.8c-113.107 0-204.803 111.749-204.803 249.599 0 137.853 30.111 249.601 204.803 249.601s204.797-111.749 204.797-249.601c0-137.85-91.696-249.599-204.797-249.599zM876.363 85.543c0.243-15.263 0.373-17.904 0.437-16.541-0.009-4.046-0.015-9.992-0.015-18.544 0 0-57.477-114.457-390.377-114.457-332.905 0-390.377 114.457-390.377 114.457 0 13.31-0.018 20.943-0.032 25.070 0.065-2.202 0.232-1.206 0.593 17.767 4.4 232.349 37.864 299.335 276.628 341.905 0 0 33.986-42.777 113.188-42.777s113.182 42.777 113.182 42.777c241.398-43.040 272.944-111.035 276.772-349.657z" />
<glyph unicode="&#xe912;" glyph-name="remove-2" d="M115.105 634.182h-22.014c-25.706 0-46.545 20.839-46.545 46.545v93.091c0 25.706 20.839 46.545 46.545 46.545h246.691v46.545c0 43.701 35.426 79.127 79.127 79.127h186.182c43.701 0 79.127-35.426 79.127-79.127v-46.545h246.691c25.706 0 46.545-20.839 46.545-46.545v-93.091c0-25.706-20.839-46.545-46.545-46.545h-22.014l-36.005-620.324c-2.429-41.849-37.075-74.542-78.994-74.542h-563.792c-41.92 0-76.565 32.693-78.994 74.542l-36.005 620.324zM180.378 634.182l35.786-616.548c0.429-7.385 6.543-13.155 13.94-13.155h563.792c7.398 0 13.512 5.769 13.94 13.155l35.786 616.548h-663.244zM404.945 820.364h214.109v46.545c0 7.712-6.252 13.964-13.964 13.964h-186.182c-7.712 0-13.964-6.252-13.964-13.964v-46.545zM111.709 699.345h800.582v55.855h-800.582v-55.855zM512 541.091c17.994 0 32.582-14.587 32.582-32.582v-400.291c0-17.994-14.587-32.582-32.582-32.582s-32.582 14.587-32.582 32.582v400.291c0 17.994 14.587 32.582 32.582 32.582zM313.638 540.772c17.97 0.942 33.301-12.862 34.242-30.832l20.95-399.742c0.942-17.97-12.862-33.301-30.832-34.242s-33.301 12.862-34.242 30.832l-20.95 399.742c-0.942 17.97 12.862 33.301 30.832 34.242zM710.362 540.772c17.97-0.942 31.774-16.273 30.832-34.242l-20.95-399.742c-0.942-17.97-16.273-31.774-34.242-30.832s-31.774 16.273-30.832 34.242l20.95 399.742c0.942 17.97 16.273 31.774 34.242 30.832z" />
<glyph unicode="&#xe913;" glyph-name="remove" d="M851.392 867.266h-181.265v62.587c0 16.648-14.816 30.147-33.092 30.147h-242.387c-18.274 0-33.092-13.497-33.092-30.147v-62.587h-181.265c-18.274 0-33.092-13.497-33.092-30.147v-92.732c0-16.648 14.816-30.147 33.092-30.147h671.097c18.274 0 33.092 13.497 33.092 30.147v92.732c0.002 16.652-14.814 30.147-33.088 30.147zM603.942 867.266h-176.201v32.442h176.201v-32.442zM188.16 632.32l27.864-663.816c0.761-18.169 15.568-32.504 33.572-32.504h532.492c18.003 0 32.811 14.335 33.572 32.506l27.862 663.814h-655.36zM414.261 74.034c0-18.745-15.045-33.943-33.604-33.943-18.557 0-33.604 15.197-33.604 33.943v420.255c0 18.745 15.045 33.943 33.604 33.943 18.557 0 33.604-15.197 33.604-33.943v-420.255zM549.439 74.034c0-18.745-15.045-33.943-33.604-33.943s-33.604 15.197-33.604 33.943v420.255c0 18.745 15.045 33.943 33.604 33.943s33.604-15.197 33.604-33.943v-420.255zM684.617 74.034c0-18.745-15.045-33.943-33.604-33.943s-33.604 15.197-33.604 33.943v420.255c0 18.745 15.045 33.943 33.604 33.943s33.604-15.197 33.604-33.943v-420.255z" />
<glyph unicode="&#xe914;" glyph-name="save" horiz-adv-x="1331" d="M1001.622 887.682l-423.014-423.014c-33.991-33.991-89.102-33.991-123.093 0l-134.806 134.806c-5.998 5.998-15.724 5.998-21.722 0l-156.248-156.248c-5.998-5.998-5.998-15.724 0-21.722l363.462-363.462c5.998-5.998 15.724-5.998 21.722 0l651.67 651.67c5.998 5.998 5.998 15.724 0 21.722l-156.248 156.248c-5.998 5.998-15.724 5.998-21.722 0zM1230.278 782.119c33.991-33.991 33.991-89.102 0-123.093l-651.67-651.67c-33.991-33.991-89.102-33.991-123.093 0l-363.462 363.462c-33.991 33.991-33.991 89.102 0 123.093l156.248 156.248c33.991 33.991 89.102 33.991 123.093 0l134.806-134.806c5.998-5.998 15.724-5.998 21.722 0l423.014 423.014c33.991 33.991 89.102 33.991 123.093 0l156.248-156.248z" />
<glyph unicode="&#xe915;" glyph-name="search" d="M676.288 808.772c-144.748 144.748-380.336 144.748-525.084 0-144.717-144.779-144.717-380.336 0-525.115 128.902-128.87 329.66-142.677 474.314-42.047 3.044-14.403 10.010-28.146 21.212-39.348l210.799-210.799c30.719-30.657 80.36-30.657 110.922 0 30.688 30.688 30.688 80.328 0 110.922l-210.799 210.862c-11.139 11.108-24.914 18.105-39.317 21.149 100.693 144.685 86.886 345.412-42.047 474.376zM609.734 350.211c-108.067-108.067-283.942-108.067-391.977 0-108.004 108.067-108.004 283.91 0 391.977 108.035 108.035 283.91 108.035 391.977 0 108.067-108.067 108.067-283.91 0-391.977z" />
<glyph unicode="&#xe916;" glyph-name="settings" d="M978.396 500.114c-1.484 13.195-16.869 23.11-30.173 23.11-43.011 0-81.179 25.254-97.185 64.311-16.352 40.003-5.808 86.656 26.247 116.060 10.090 9.224 11.316 24.664 2.853 35.39-22.014 27.954-47.035 53.205-74.354 75.089-10.698 8.585-26.394 7.39-35.67-2.881-27.976-30.982-78.227-42.497-117.058-26.295-40.409 16.998-65.892 57.944-63.398 101.898 0.821 13.806-9.269 25.81-23.034 27.413-35.059 4.055-70.425 4.181-105.588 0.279-13.607-1.502-23.697-13.223-23.24-26.854 1.53-43.52-24.26-83.751-64.267-100.138-38.366-15.671-88.265-4.254-116.185 26.452-9.227 10.114-24.668 11.358-35.419 2.979-28.129-22.069-53.713-47.341-75.929-75.065-8.665-10.778-7.39-26.4 2.801-35.673 32.666-29.582 43.214-76.64 26.243-117.104-16.202-38.578-56.262-63.442-102.124-63.442-14.882 0.478-25.482-9.51-27.11-23.040-4.128-35.26-4.177-71.188-0.203-106.735 1.474-13.251 17.327-23.079 30.777-23.079 40.87 1.044 80.11-24.259 96.571-64.315 16.408-40.003 5.861-86.628-26.243-116.056-10.041-9.224-11.316-24.64-2.853-35.365 21.808-27.776 46.832-53.051 74.249-75.117 10.754-8.665 26.401-7.443 35.722 2.829 28.081 31.059 78.329 42.553 117.006 26.32 40.511-16.946 65.993-57.889 63.499-101.866-0.814-13.813 9.325-25.838 23.034-27.416 17.935-2.092 35.977-3.136 54.069-3.136 17.173 0 34.35 0.943 51.523 2.853 13.611 1.502 23.694 13.223 23.236 26.878-1.575 43.496 24.26 83.726 64.215 100.085 38.625 15.776 88.314 4.229 116.237-26.445 9.28-10.093 24.612-11.312 35.422-2.962 28.077 22.017 53.608 47.268 75.929 75.068 8.662 10.753 7.439 26.4-2.805 35.669-32.666 29.582-43.266 76.647-26.296 117.083 15.954 38.065 54.527 63.623 96.015 63.623l5.805-0.15c13.457-1.093 25.838 9.273 27.469 23.009 4.135 35.292 4.184 71.188 0.21 106.735zM512.744 290.458c-86.33 0-156.553 70.221-156.553 156.549 0 86.325 70.222 156.549 156.553 156.549 86.327 0 156.549-70.224 156.549-156.549 0-86.328-70.222-156.549-156.549-156.549z" />
<glyph unicode="&#xe917;" glyph-name="sun" d="M692.547 628.547c-45.811 45.811-110.484 75.453-180.547 75.453s-134.737-28.295-180.547-75.453c-45.811-45.811-75.453-110.484-75.453-180.547s29.642-134.737 75.453-180.547c45.811-45.811 110.484-75.453 180.547-75.453s134.737 28.295 180.547 75.453c45.811 45.811 75.453 110.484 75.453 180.547s-28.295 134.737-75.453 180.547zM987.882 486.4h-106.964c-19.448 0-36.118-14.769-36.118-32s16.67-32 36.118-32h106.964c19.448 0 36.118 14.769 36.118 32s-16.67 32-36.118 32zM505.6 115.2c-17.231 0-32-16.67-32-36.118v-106.964c0-19.448 14.769-36.118 32-36.118s32 16.67 32 36.118v106.964c0 19.448-14.769 36.118-32 36.118zM873.238 134.581l-73.057 73.057c-11.955 13.283-34.536 13.283-47.819 0s-13.283-34.536 0-47.819l73.057-73.057c13.283-13.283 34.536-13.283 47.819 0s13.283 34.536 0 47.819zM505.6 960c-17.231 0-32-16.67-32-36.118v-106.964c0-19.448 14.769-36.118 32-36.118s32 16.67 32 36.118v106.964c0 19.448-14.769 36.118-32 36.118zM873.238 809.238c-13.283 13.283-34.536 13.283-47.819 0l-73.057-73.057c-13.283-13.283-13.283-34.536 0-47.819 11.955-13.283 34.536-13.283 47.819 0l73.057 73.057c13.283 13.283 13.283 34.536 0 47.819zM143.082 486.4h-106.964c-19.448 0-36.118-14.769-36.118-32s15.281-32 36.118-32h106.964c19.448 0 36.118 14.769 36.118 32s-16.67 32-36.118 32zM271.638 207.638c-11.955 13.283-34.536 13.283-47.819 0l-73.057-73.057c-13.283-13.283-13.283-34.536 0-47.819s34.536-13.283 47.819 0l73.057 73.057c13.283 13.283 13.283 34.536 0 47.819zM271.638 736.181l-73.057 73.057c-13.283 13.283-34.536 13.283-47.819 0s-13.283-34.536 0-47.819l73.057-73.057c13.283-13.283 34.536-13.283 47.819 0s13.283 34.536 0 47.819z" />
</font>
</defs>
</svg>
